<?xml version="1.0" encoding="UTF-8"?>
<svg id="Layer_1" data-name="Layer 1" xmlns="http://www.w3.org/2000/svg" viewBox="0 0 117.95 34.25">
  <defs>
    <style>
      .cls-1 {
        fill: #fff;
      }
    </style>
  </defs>
  <path class="cls-1" d="M16.61,7.59v3.06c-.87-.25-1.88-.38-3.03-.38-1.56,0-2.94.41-4.16,1.23-1.21.82-2.16,1.91-2.83,3.28-.68,1.37-1.02,2.84-1.02,4.42v7.51h-3.29V7.55h2.91v4.75c.87-1.56,2.01-2.78,3.43-3.68,1.42-.89,3.06-1.34,4.92-1.34,1.25,0,2.27.1,3.06.31Z"/>
  <path class="cls-1" d="M20.32,24.38c-2.25-1.75-3.37-4.18-3.37-7.3v-.04c0-3.09,1.12-5.5,3.37-7.22,2.25-1.72,5.38-2.59,9.38-2.59s7.23.86,9.5,2.59c2.27,1.72,3.41,4.13,3.41,7.22v.04c0,3.12-1.14,5.55-3.41,7.3-2.27,1.75-5.44,2.62-9.5,2.62s-7.14-.87-9.38-2.62ZM36.74,22.28c1.67-1.24,2.51-2.97,2.51-5.19v-.04c0-2.2-.84-3.9-2.51-5.11-1.67-1.21-4.02-1.82-7.03-1.82s-5.27.61-6.91,1.84c-1.65,1.23-2.47,2.92-2.47,5.09v.04c0,2.22.82,3.95,2.47,5.19,1.65,1.24,3.95,1.86,6.91,1.86s5.36-.62,7.03-1.86Z"/>
  <path class="cls-1" d="M47.94,24.38c-2.25-1.75-3.37-4.18-3.37-7.3v-.04c0-3.09,1.12-5.5,3.37-7.22,2.25-1.72,5.38-2.59,9.38-2.59s7.23.86,9.5,2.59c2.27,1.72,3.41,4.13,3.41,7.22v.04c0,3.12-1.14,5.55-3.41,7.3-2.27,1.75-5.44,2.62-9.5,2.62s-7.14-.87-9.38-2.62ZM64.36,22.28c1.67-1.24,2.51-2.97,2.51-5.19v-.04c0-2.2-.84-3.9-2.51-5.11-1.67-1.21-4.02-1.82-7.03-1.82s-5.27.61-6.91,1.84c-1.65,1.23-2.47,2.92-2.47,5.09v.04c0,2.22.82,3.95,2.47,5.19,1.65,1.24,3.95,1.86,6.91,1.86s5.36-.62,7.03-1.86Z"/>
  <path class="cls-1" d="M113.06,9.35c1.74,1.41,2.61,3.41,2.61,6.01v11.34h-3.29v-10.88c0-1.79-.61-3.19-1.84-4.19-1.23-1.01-2.81-1.51-4.75-1.51s-3.58.31-5.08.92-2.67,1.49-3.52,2.64c-.86,1.15-1.28,2.49-1.28,4.02v9h-3.29v-10.88c0-1.79-.61-3.19-1.84-4.19-1.23-1.01-2.81-1.51-4.75-1.51s-3.58.31-5.08.92-2.67,1.49-3.52,2.64c-.86,1.15-1.28,2.49-1.28,4.02v9h-3.29V7.55h2.91v3.91c1.02-1.38,2.46-2.43,4.31-3.14,1.85-.72,3.96-1.07,6.34-1.07,2.09,0,3.9.41,5.42,1.23,1.52.82,2.6,2.02,3.24,3.6,1-1.58,2.46-2.78,4.39-3.6,1.93-.82,4.17-1.23,6.72-1.23,2.86,0,5.16.7,6.89,2.11Z"/>
</svg>