<?xml version="1.0" encoding="UTF-8"?>
<svg id="Layer_1" data-name="Layer 1" xmlns="http://www.w3.org/2000/svg" viewBox="0 0 294.43 20.23">
  <defs>
    <style>
      .cls-1 {
        fill: #fff;
      }
    </style>
  </defs>
  <path class="cls-1" d="M40.8,4.97c2.11.91,3.17,2.06,3.17,3.46s-1.05,2.53-3.16,3.51c-1.94.83-4.25,1.24-6.92,1.24s-4.96-.41-6.98-1.24c-2.1-.97-3.16-2.13-3.16-3.49s1.05-2.56,3.16-3.47c2.03-.89,4.33-1.34,6.92-1.37,2.7.02,5.02.48,6.97,1.37ZM40.27,10.92c1.67-.7,2.5-1.53,2.5-2.49s-.83-1.76-2.49-2.51c-1.74-.78-3.87-1.17-6.39-1.17s-4.69.39-6.45,1.17c-1.66.79-2.49,1.63-2.49,2.51,0,.44.22.88.65,1.31.44.43,1.05.83,1.83,1.19,1.8.79,3.95,1.19,6.44,1.19s4.62-.4,6.39-1.2Z"/>
  <path class="cls-1" d="M63.13,4.97c2.11.91,3.17,2.06,3.17,3.46s-1.05,2.53-3.16,3.51c-1.94.83-4.25,1.24-6.92,1.24s-4.96-.41-6.98-1.24c-2.1-.97-3.16-2.13-3.16-3.49s1.05-2.56,3.16-3.47c2.03-.89,4.33-1.34,6.92-1.37,2.7.02,5.02.48,6.97,1.37ZM62.61,10.92c1.67-.7,2.5-1.53,2.5-2.49s-.83-1.76-2.49-2.51c-1.74-.78-3.87-1.17-6.39-1.17s-4.69.39-6.45,1.17c-1.66.79-2.49,1.63-2.49,2.51,0,.44.22.88.65,1.31.44.43,1.05.83,1.83,1.19,1.8.79,3.95,1.19,6.44,1.19s4.62-.4,6.39-1.2Z"/>
  <path class="cls-1" d="M178.16,2.01c0-.18.06-.33.18-.46.12-.12.27-.19.45-.19s.33.06.46.19.19.28.19.46-.06.33-.19.45c-.12.12-.28.18-.46.18s-.34-.06-.46-.18c-.12-.12-.18-.27-.18-.46ZM179.42,3.6v9.57h-1.24V3.6h1.24Z"/>
  <path class="cls-1" d="M254.53,5.87c-1.65.76-2.48,1.61-2.48,2.54,0,.45.22.9.65,1.34.44.44,1.04.83,1.81,1.16,1.85.79,4.02,1.19,6.51,1.19s4.64-.4,6.5-1.19c.97-.42,1.67-.93,2.08-1.52v1.64c-.43.29-.95.57-1.58.85-1.89.86-4.22,1.3-6.99,1.3s-5.1-.43-7.05-1.3c-2.09-.94-3.13-2.09-3.13-3.46s1.04-2.58,3.13-3.49c2.04-.88,4.39-1.32,7.05-1.32s5.09.44,6.99,1.32c.68.32,1.2.61,1.58.88v1.55c-.45-.55-1.15-1.05-2.08-1.48-1.68-.78-3.85-1.17-6.49-1.17s-4.8.39-6.51,1.17Z"/>
  <g>
    <path class="cls-1" d="M2.74,5.22v-1.59h-1.19v2.47c.37-.33.77-.63,1.19-.88Z"/>
    <path class="cls-1" d="M18.57,4.84c-2.04-.84-4.35-1.26-6.92-1.26h-.02c-2.6,0-4.91.42-6.92,1.26-.72.33-1.37.74-1.95,1.21-.39.34-.8.67-1.21.99v6.12h1.19v-4.96c.07-.9.9-1.69,2.49-2.37,1.82-.79,3.95-1.19,6.39-1.19s4.56.4,6.42,1.19c1.66.72,2.49,1.55,2.49,2.49h1.19c0-1.36-1.05-2.53-3.16-3.49Z"/>
  </g>
  <g>
    <path class="cls-1" d="M112.26,5.22v-1.59h-1.19v2.47c.37-.33.77-.63,1.19-.88Z"/>
    <path class="cls-1" d="M128.08,4.84c-2.04-.84-4.35-1.26-6.92-1.26h-.02c-2.6,0-4.91.42-6.92,1.26-.72.33-1.37.74-1.95,1.21-.39.34-.8.67-1.21.99v6.12h1.19v-4.96c.07-.9.9-1.69,2.49-2.37,1.82-.79,3.95-1.19,6.39-1.19s4.56.4,6.42,1.19c1.66.72,2.49,1.55,2.49,2.49h1.19c0-1.36-1.05-2.53-3.16-3.49Z"/>
  </g>
  <g>
    <path class="cls-1" d="M229.45,5.12v-1.52h-1.15v2.45c.35-.35.73-.66,1.15-.93Z"/>
    <path class="cls-1" d="M245.13,4.9c-1.92-.86-4.22-1.3-6.92-1.3s-5.06.43-6.85,1.3c-.75.36-1.39.76-1.92,1.19l.43-.34c-.37.31-1.19.93-1.58,1.22v6.2h1.15v-4.91c.12-.93.94-1.73,2.44-2.42,1.7-.76,3.81-1.15,6.32-1.15s4.64.38,6.39,1.15c.78.36,1.38.76,1.82,1.19.43.44.65.87.65,1.3v4.84h1.17v-4.84c-.02-1.38-1.06-2.52-3.11-3.44Z"/>
  </g>
  <g>
    <path class="cls-1" d="M202.47,5.74l-.02-4.67h-1.17v3.8c.42.25.82.55,1.19.88Z"/>
    <path class="cls-1" d="M201.12,5.66l.16.12c-.39-.3-.91-.6-1.55-.88-1.92-.86-4.26-1.3-7.04-1.3s-5.12.43-7.09,1.3c-2.12.93-3.18,2.09-3.18,3.48s1.06,2.57,3.18,3.49c1.97.86,4.34,1.3,7.09,1.3s5.12-.43,7.04-1.3c.65-.29,1.17-.58,1.55-.88v2.17h1.22l-.03-6.48c-.41-.31-.96-.7-1.35-1.04ZM201.28,9.45c-.37.53-1.06,1.02-2.08,1.48-1.71.78-3.88,1.17-6.51,1.17s-4.85-.39-6.56-1.17c-1.64-.74-2.47-1.59-2.47-2.54s.82-1.78,2.47-2.5c1.89-.81,4.07-1.22,6.56-1.22s4.62.41,6.51,1.22c1.02.44,1.71.92,2.08,1.44v2.12Z"/>
  </g>
  <g>
    <path class="cls-1" d="M292.88,9.76V3.63h-1.21v5.21c.44.27.84.58,1.21.92Z"/>
    <path class="cls-1" d="M291.5,9.57c-.75.82-1.94,1.46-3.58,1.9-1.51.41-3.15.61-4.91.61-2.56,0-4.73-.41-6.53-1.23-1.63-.75-2.44-1.57-2.44-2.45V3.58h-1.21v4.84c.02,1.35,1.07,2.5,3.13,3.46,1.88.85,4.23,1.27,7.06,1.27,3.93,0,6.81-.72,8.65-2.17v4.49c-.44.54-1.14,1.04-2.1,1.51-1.56.68-3.72,1.06-6.47,1.13-2.74-.08-4.91-.46-6.49-1.13-1.63-.75-2.44-1.6-2.44-2.56h-1.26c0,1.45,1.07,2.61,3.2,3.49,1.82.83,4.14,1.25,6.94,1.25s5.2-.42,7.05-1.25c1.15-.48,2.08-1.21,2.79-2.17v-5.04c-.47-.36-.93-.74-1.38-1.13Z"/>
  </g>
  <g>
    <path class="cls-1" d="M156.49,7.26s0-.01,0-.02c.03-.3.22-.57.56-.79s.98-.5,1.91-.83c1.65-.59,3.76-.89,6.32-.89s4.65.3,6.37.91c.65.23,1.2.5,1.65.82.23-.1.62-.3,1.19-.58-.55-.48-1.33-.89-2.34-1.24-1.82-.67-4.1-1-6.83-1s-4.99.33-6.87,1c-2.02.71-3.06,1.6-3.13,2.68.02.33.12.6.29.82.27-.31.57-.6.89-.87Z"/>
    <path class="cls-1" d="M173.45,7.69h-16.3c-.35.29-.7.58-1.07.86.13.09.26.18.42.26h16.95c.5.23.75.47.75.7-.03.3-.23.56-.6.81-.37.24-1.02.53-1.96.87-1.75.59-3.88.89-6.37.89s-4.6-.3-6.32-.89c-.74-.25-1.34-.56-1.79-.94,0,0-.17.08-.53.27-.37.19-.58.3-.63.33.55.51,1.36.96,2.44,1.34,1.85.65,4.12.98,6.83.98s5.03-.33,6.87-.98c2-.7,3.03-1.6,3.11-2.69-.06-.86-.66-1.46-1.8-1.81Z"/>
    <path class="cls-1" d="M156,10.85s0,0,0,0c-.02,0-.02.01,0,0Z"/>
  </g>
  <path class="cls-1" d="M152.23,6.25c-.64-.64-1.32-1.11-2.03-1.4-1.91-.84-4.22-1.26-6.94-1.26s-4.99.42-6.9,1.27c-.98.44-1.74.97-2.28,1.58-.41.47-.66.95-.76,1.46.88-.88,1.99-1.54,3.18-1.9-.02.02.02-.02,0,0,.15-.08.24-.11.4-.19,1.63-.76,3.74-1.15,6.35-1.15s4.76.38,6.42,1.15c1.32.62,2.12,1.25,2.37,1.92h-17.38c-.44.38-.89.74-1.35,1.09.2,1.37,1.3,2.45,3.34,3.23.89.34,1.93.61,3.11.81,1.19.2,2.35.3,3.49.3h.07c2.67,0,4.96-.42,6.9-1.27-.69-.48-1.03-.72-1.03-.74-1.77.62-3.75.94-5.94.94-1.68,0-3.25-.18-4.71-.55-2.3-.57-3.63-1.47-4-2.71h18.64c.05-.07.09-.22.12-.46,0-.69-.36-1.4-1.08-2.12Z"/>
  <path class="cls-1" d="M224.34,6.25c-.64-.64-1.32-1.11-2.03-1.4-1.91-.84-4.22-1.26-6.94-1.26s-4.99.42-6.9,1.27c-.98.44-1.74.97-2.28,1.58-.41.47-.66.95-.76,1.46.88-.88,1.99-1.54,3.18-1.9-.02.02.02-.02,0,0,.15-.08.24-.11.4-.19,1.63-.76,3.74-1.15,6.35-1.15s4.76.38,6.42,1.15c1.32.62,2.12,1.25,2.37,1.92h-17.38c-.44.38-.89.74-1.35,1.09.2,1.37,1.3,2.45,3.34,3.23.89.34,1.93.61,3.11.81,1.19.2,2.35.3,3.49.3h.07c2.67,0,4.96-.42,6.9-1.27-.69-.48-1.03-.72-1.03-.74-1.77.62-3.75.94-5.94.94-1.68,0-3.25-.18-4.71-.55-2.3-.57-3.63-1.47-4-2.71h18.64c.05-.07.09-.22.12-.46,0-.69-.36-1.4-1.08-2.12Z"/>
  <polygon class="cls-1" points="131.95 9.79 131.95 9.79 131.95 9.79 131.95 9.79"/>
  <polygon class="cls-1" points="67.78 7.82 67.78 7.82 67.78 7.82 67.78 7.82"/>
  <g>
    <path class="cls-1" d="M93.96,4.82c-1.25-.83-2.87-1.24-4.84-1.24s-3.54.41-4.7,1.24c-.58.4-1.15.94-1.72,1.61-.57-.66-1.15-1.17-1.75-1.53-1.36-.86-2.98-1.29-4.89-1.29s-3.42.43-4.63,1.28c0,0,0,0,0,0-.3.2-.6.48-.89.81l.29-.31c-.36.31-1.17,1.04-1.55,1.33v6.45h1.12v-4.91c.12-1.13.79-2.03,1.99-2.69,1.13-.63,2.42-.95,3.86-.95,1.04,0,2.18.28,3.4.84,1.68.77,2.51,1.69,2.51,2.77.02,1.42.02,3.06,0,4.93h1.08l-.02-4.89c.16-1.11.86-2,2.09-2.69,1.17-.65,2.47-.97,3.89-.97,1.27,0,2.43.24,3.49.72,1.49.68,2.28,1.65,2.37,2.91v4.91h1.05v-4.91c0-1.4-.72-2.55-2.15-3.45Z"/>
    <path class="cls-1" d="M70.4,3.6h-1.12v2.19c.35-.33.72-.63,1.12-.88v-1.31Z"/>
  </g>
</svg>