<?xml version="1.0" encoding="UTF-8"?>
<svg id="Layer_1" data-name="Layer 1" xmlns="http://www.w3.org/2000/svg" viewBox="0 0 94.57 20.23">
  <defs>
    <style>
      .cls-1 {
        fill: #fff;
      }
    </style>
  </defs>
  <path class="cls-1" d="M39.25,6.71c2.11.91,3.17,2.06,3.17,3.46s-1.05,2.53-3.16,3.51c-1.94.83-4.25,1.24-6.92,1.24s-4.96-.41-6.98-1.24c-2.1-.97-3.16-2.13-3.16-3.49s1.05-2.56,3.16-3.47c2.03-.89,4.33-1.34,6.92-1.37,2.7.02,5.02.48,6.97,1.37ZM38.72,12.66c1.67-.7,2.5-1.53,2.5-2.49s-.83-1.76-2.49-2.51c-1.74-.78-3.87-1.17-6.39-1.17s-4.69.39-6.45,1.17c-1.66.79-2.49,1.63-2.49,2.51,0,.44.22.88.65,1.31.44.43,1.05.83,1.83,1.19,1.8.79,3.95,1.19,6.44,1.19s4.62-.4,6.39-1.2Z"/>
  <path class="cls-1" d="M61.58,6.71c2.11.91,3.17,2.06,3.17,3.46s-1.05,2.53-3.16,3.51c-1.94.83-4.25,1.24-6.92,1.24s-4.96-.41-6.98-1.24c-2.1-.97-3.16-2.13-3.16-3.49s1.05-2.56,3.16-3.47c2.03-.89,4.33-1.34,6.92-1.37,2.7.02,5.02.48,6.97,1.37ZM61.06,12.66c1.67-.7,2.5-1.53,2.5-2.49s-.83-1.76-2.49-2.51c-1.74-.78-3.87-1.17-6.39-1.17s-4.69.39-6.45,1.17c-1.66.79-2.49,1.63-2.49,2.51,0,.44.22.88.65,1.31.44.43,1.05.83,1.83,1.19,1.8.79,3.95,1.19,6.44,1.19s4.62-.4,6.39-1.2Z"/>
  <g>
    <path class="cls-1" d="M1.19,6.96v-1.59H0v2.47c.37-.33.77-.63,1.19-.88Z"/>
    <path class="cls-1" d="M17.02,6.58c-2.04-.84-4.35-1.26-6.92-1.26h-.02c-2.6,0-4.91.42-6.92,1.26-.72.33-1.37.74-1.95,1.21-.39.34-.8.67-1.21.99v6.12h1.19v-4.96c.07-.9.9-1.69,2.49-2.37,1.82-.79,3.95-1.19,6.39-1.19s4.56.4,6.42,1.19c1.66.72,2.49,1.55,2.49,2.49h1.19c0-1.36-1.05-2.53-3.16-3.49Z"/>
  </g>
  <polygon class="cls-1" points="66.23 9.55 66.23 9.55 66.23 9.55 66.23 9.55"/>
  <g>
    <path class="cls-1" d="M92.42,6.56c-1.25-.83-2.87-1.24-4.84-1.24s-3.54.41-4.7,1.24c-.58.4-1.15.94-1.72,1.61-.57-.66-1.15-1.17-1.75-1.53-1.36-.86-2.98-1.29-4.89-1.29s-3.42.43-4.63,1.28c0,0,0,0,0,0-.3.2-.6.48-.89.81l.29-.31c-.36.31-1.17,1.04-1.55,1.33v6.45h1.12v-4.91c.12-1.13.79-2.03,1.99-2.69,1.13-.63,2.42-.95,3.86-.95,1.04,0,2.18.28,3.4.84,1.68.77,2.51,1.69,2.51,2.77.02,1.42.02,3.06,0,4.93h1.08l-.02-4.89c.16-1.11.86-2,2.09-2.69,1.17-.65,2.47-.97,3.89-.97,1.27,0,2.43.24,3.49.72,1.49.68,2.28,1.65,2.37,2.91v4.91h1.05v-4.91c0-1.4-.72-2.55-2.15-3.45Z"/>
    <path class="cls-1" d="M68.85,5.34h-1.12v2.19c.35-.33.72-.63,1.12-.88v-1.31Z"/>
  </g>
</svg>