<?xml version="1.0" encoding="UTF-8"?>
<svg id="Layer_1" data-name="Layer 1" xmlns="http://www.w3.org/2000/svg" viewBox="0 0 367.31 34.25">
  <defs>
    <style>
      .cls-1 {
        fill: #fff;
      }
    </style>
  </defs>
  <path class="cls-1" d="M15.92,11.27v3.06c-.87-.25-1.88-.38-3.03-.38-1.56,0-2.94.41-4.16,1.23-1.21.82-2.16,1.91-2.83,3.28-.68,1.37-1.02,2.84-1.02,4.42v7.51H1.59V11.23h2.91v4.75c.87-1.56,2.01-2.78,3.43-3.68,1.42-.89,3.06-1.34,4.92-1.34,1.25,0,2.27.1,3.06.31Z"/>
  <path class="cls-1" d="M19.64,28.06c-2.25-1.75-3.37-4.18-3.37-7.3v-.04c0-3.09,1.12-5.5,3.37-7.22,2.25-1.72,5.38-2.59,9.38-2.59s7.23.86,9.5,2.59c2.27,1.72,3.41,4.13,3.41,7.22v.04c0,3.12-1.14,5.55-3.41,7.3-2.27,1.75-5.44,2.62-9.5,2.62s-7.14-.87-9.38-2.62ZM36.05,25.96c1.67-1.24,2.51-2.97,2.51-5.19v-.04c0-2.2-.84-3.9-2.51-5.11-1.67-1.21-4.02-1.82-7.03-1.82s-5.27.61-6.91,1.84c-1.65,1.23-2.47,2.92-2.47,5.09v.04c0,2.22.82,3.95,2.47,5.19,1.65,1.24,3.95,1.86,6.91,1.86s5.36-.62,7.03-1.86Z"/>
  <path class="cls-1" d="M47.25,28.06c-2.25-1.75-3.37-4.18-3.37-7.3v-.04c0-3.09,1.12-5.5,3.37-7.22,2.25-1.72,5.38-2.59,9.38-2.59s7.23.86,9.5,2.59c2.27,1.72,3.41,4.13,3.41,7.22v.04c0,3.12-1.14,5.55-3.41,7.3-2.27,1.75-5.44,2.62-9.5,2.62s-7.14-.87-9.38-2.62ZM63.67,25.96c1.67-1.24,2.51-2.97,2.51-5.19v-.04c0-2.2-.84-3.9-2.51-5.11-1.67-1.21-4.02-1.82-7.03-1.82s-5.27.61-6.91,1.84c-1.65,1.23-2.47,2.92-2.47,5.09v.04c0,2.22.82,3.95,2.47,5.19,1.65,1.24,3.95,1.86,6.91,1.86s5.36-.62,7.03-1.86Z"/>
  <path class="cls-1" d="M112.37,13.03c1.74,1.41,2.61,3.41,2.61,6.01v11.34h-3.29v-10.88c0-1.79-.61-3.19-1.84-4.19-1.23-1.01-2.81-1.51-4.75-1.51s-3.58.31-5.08.92-2.67,1.49-3.52,2.64c-.86,1.15-1.28,2.49-1.28,4.02v9h-3.29v-10.88c0-1.79-.61-3.19-1.84-4.19-1.23-1.01-2.81-1.51-4.75-1.51s-3.58.31-5.08.92-2.67,1.49-3.52,2.64c-.86,1.15-1.28,2.49-1.28,4.02v9h-3.29V11.23h2.91v3.91c1.02-1.38,2.46-2.43,4.31-3.14,1.85-.72,3.96-1.07,6.34-1.07,2.09,0,3.9.41,5.42,1.23,1.52.82,2.6,2.02,3.24,3.6,1-1.58,2.46-2.78,4.39-3.6,1.93-.82,4.17-1.23,6.72-1.23,2.86,0,5.16.7,6.89,2.11Z"/>
  <path class="cls-1" d="M144.39,11.27v3.06c-.87-.25-1.88-.38-3.03-.38-1.56,0-2.94.41-4.16,1.23-1.21.82-2.16,1.91-2.83,3.28-.68,1.37-1.02,2.84-1.02,4.42v7.51h-3.29V11.23h2.91v4.75c.87-1.56,2.01-2.78,3.43-3.68,1.42-.89,3.06-1.34,4.92-1.34,1.25,0,2.27.1,3.06.31Z"/>
  <path class="cls-1" d="M167.07,23.71h3.18l-.04.15c-.28,2.15-1.48,3.82-3.6,5.02-2.12,1.2-4.93,1.8-8.43,1.8-4.24,0-7.54-.87-9.9-2.6-2.36-1.74-3.54-4.16-3.54-7.28v-.04c0-3.09,1.15-5.5,3.45-7.24,2.3-1.74,5.5-2.6,9.61-2.6,3.86,0,6.88.85,9.08,2.55,2.2,1.7,3.31,4.05,3.33,7.07l.04.88h-22.25c.15,2.09,1.11,3.72,2.87,4.87,1.76,1.15,4.16,1.72,7.2,1.72,2.5,0,4.54-.37,6.13-1.11,1.58-.74,2.53-1.78,2.83-3.1l.04-.08ZM151.31,14.98c-1.65.92-2.69,2.22-3.12,3.91h18.54c-.43-1.69-1.44-2.99-3.01-3.91-1.57-.92-3.58-1.38-6.03-1.38-2.6,0-4.73.46-6.38,1.38Z"/>
  <path class="cls-1" d="M192.5,17.39v-.23c-.1-1.05-.93-1.89-2.49-2.53-1.56-.64-3.61-.96-6.17-.96s-4.6.27-5.99.8-2.09,1.3-2.09,2.3v.04c0,.74.35,1.29,1.05,1.65.7.36,1.58.59,2.64.69,1.06.1,2.55.18,4.46.23,2.53.08,4.6.22,6.2.44s2.98.71,4.12,1.47c1.14.77,1.7,1.94,1.7,3.52v.04c0,1.81-1.07,3.24-3.2,4.27-2.13,1.03-5.08,1.55-8.83,1.55s-6.5-.52-8.39-1.55c-1.89-1.03-3.01-2.61-3.37-4.73l-.04-.19h3.29l.04.19c.23,1.18,1.01,2.06,2.36,2.64,1.34.59,3.38.88,6.11.88s4.83-.29,6.36-.86,2.3-1.37,2.3-2.39v-.04c0-.69-.34-1.2-1.03-1.53-.69-.33-1.55-.55-2.59-.65-1.03-.1-2.48-.18-4.35-.23-2.55-.08-4.65-.22-6.28-.44s-3.03-.72-4.19-1.51-1.74-1.99-1.74-3.6v-.04c0-1.81.98-3.22,2.95-4.21,1.97-1,4.8-1.49,8.5-1.49s6.37.56,8.47,1.67c2.09,1.11,3.26,2.66,3.49,4.65v.15h-3.29Z"/>
  <path class="cls-1" d="M201.81,7.24h-3.29v-3.68h3.29v3.68ZM201.81,30.38h-3.29V11.23h3.29v19.15Z"/>
  <path class="cls-1" d="M230.2,3.57v26.81h-2.84v-3.37c-1.02,1.2-2.39,2.11-4.1,2.74-1.71.63-3.7.94-5.98.94-4.04,0-7.19-.87-9.46-2.6-2.27-1.74-3.41-4.16-3.41-7.28v-.04c0-3.09,1.14-5.5,3.41-7.24,2.27-1.74,5.43-2.6,9.46-2.6,4.24,0,7.44,1.06,9.61,3.18V3.57h3.29ZM226.9,20.69c0-2.17-.85-3.86-2.55-5.08-1.7-1.21-4.05-1.82-7.07-1.82s-5.32.61-6.99,1.84c-1.67,1.23-2.51,2.92-2.51,5.09v.04c0,2.22.84,3.95,2.51,5.19,1.67,1.24,4,1.86,6.99,1.86s5.37-.61,7.07-1.84,2.55-2.94,2.55-5.13v-.15Z"/>
  <path class="cls-1" d="M255.13,23.71h3.18l-.04.15c-.28,2.15-1.48,3.82-3.6,5.02-2.12,1.2-4.93,1.8-8.43,1.8-4.24,0-7.54-.87-9.9-2.6-2.36-1.74-3.54-4.16-3.54-7.28v-.04c0-3.09,1.15-5.5,3.45-7.24,2.3-1.74,5.5-2.6,9.61-2.6,3.86,0,6.88.85,9.08,2.55,2.2,1.7,3.31,4.05,3.33,7.07l.04.88h-22.25c.15,2.09,1.11,3.72,2.87,4.87,1.76,1.15,4.16,1.72,7.2,1.72,2.5,0,4.54-.37,6.13-1.11,1.58-.74,2.53-1.78,2.83-3.1l.04-.08ZM239.37,14.98c-1.65.92-2.69,2.22-3.12,3.91h18.54c-.43-1.69-1.44-2.99-3.01-3.91-1.57-.92-3.58-1.38-6.03-1.38-2.6,0-4.73.46-6.38,1.38Z"/>
  <path class="cls-1" d="M282.88,13.07c1.75,1.43,2.62,3.42,2.62,5.97v11.34h-3.29v-10.88c0-1.74-.62-3.12-1.86-4.14-1.24-1.02-2.94-1.53-5.11-1.53s-4.2.31-5.86.92c-1.66.61-2.94,1.49-3.83,2.62-.89,1.14-1.34,2.47-1.34,4v9h-3.29V11.23h2.91v4.06c1.07-1.4,2.61-2.48,4.62-3.24,2-.75,4.4-1.13,7.18-1.13,3.09,0,5.51.72,7.26,2.15Z"/>
  <path class="cls-1" d="M309.33,17.7c-.18-1.23-1.03-2.19-2.57-2.89-1.53-.7-3.65-1.05-6.36-1.05-2.91,0-5.17.63-6.78,1.88-1.61,1.25-2.41,2.98-2.41,5.17v.04c0,2.17.82,3.88,2.47,5.13,1.65,1.25,4.02,1.88,7.11,1.88,2.5,0,4.5-.37,5.99-1.11s2.34-1.72,2.55-2.95l.04-.08h3.22l-.04.31c-.21,2.09-1.32,3.73-3.33,4.9-2.02,1.18-4.79,1.76-8.31,1.76-4.21,0-7.44-.87-9.69-2.6-2.25-1.74-3.37-4.16-3.37-7.28v-.04c0-3.11,1.1-5.53,3.29-7.26,2.2-1.72,5.32-2.59,9.39-2.59,3.73,0,6.62.57,8.68,1.7,2.06,1.14,3.17,2.73,3.35,4.77l.04.38h-3.22l-.04-.08Z"/>
  <path class="cls-1" d="M336.83,23.71h3.18l-.04.15c-.28,2.15-1.48,3.82-3.6,5.02-2.12,1.2-4.93,1.8-8.43,1.8-4.24,0-7.54-.87-9.9-2.6-2.36-1.74-3.54-4.16-3.54-7.28v-.04c0-3.09,1.15-5.5,3.45-7.24,2.3-1.74,5.5-2.6,9.61-2.6,3.86,0,6.88.85,9.08,2.55,2.2,1.7,3.31,4.05,3.33,7.07l.04.88h-22.25c.15,2.09,1.11,3.72,2.87,4.87,1.76,1.15,4.16,1.72,7.2,1.72,2.5,0,4.54-.37,6.13-1.11,1.58-.74,2.53-1.78,2.83-3.1l.04-.08ZM321.07,14.98c-1.65.92-2.69,2.22-3.12,3.91h18.54c-.43-1.69-1.44-2.99-3.01-3.91-1.57-.92-3.58-1.38-6.03-1.38-2.6,0-4.73.46-6.38,1.38Z"/>
  <path class="cls-1" d="M362.27,17.39v-.23c-.1-1.05-.93-1.89-2.49-2.53-1.56-.64-3.61-.96-6.17-.96s-4.6.27-5.99.8-2.09,1.3-2.09,2.3v.04c0,.74.35,1.29,1.05,1.65.7.36,1.58.59,2.64.69,1.06.1,2.55.18,4.46.23,2.53.08,4.6.22,6.2.44s2.98.71,4.12,1.47c1.14.77,1.7,1.94,1.7,3.52v.04c0,1.81-1.07,3.24-3.2,4.27-2.13,1.03-5.08,1.55-8.83,1.55s-6.5-.52-8.39-1.55c-1.89-1.03-3.01-2.61-3.37-4.73l-.04-.19h3.29l.04.19c.23,1.18,1.01,2.06,2.36,2.64,1.34.59,3.38.88,6.11.88s4.83-.29,6.36-.86,2.3-1.37,2.3-2.39v-.04c0-.69-.34-1.2-1.03-1.53-.69-.33-1.55-.55-2.59-.65-1.03-.1-2.48-.18-4.35-.23-2.55-.08-4.65-.22-6.28-.44s-3.03-.72-4.19-1.51-1.74-1.99-1.74-3.6v-.04c0-1.81.98-3.22,2.95-4.21,1.97-1,4.8-1.49,8.5-1.49s6.37.56,8.47,1.67c2.09,1.11,3.26,2.66,3.49,4.65v.15h-3.29Z"/>
</svg>